<svg width="429" height="65.05704451561803" viewBox="0 0 370.10526315789474 56.12576825344448" class="looka-1j8o68f"><defs id="SvgjsDefs3278"></defs><g id="SvgjsG3279" featurekey="v37d4h-0" transform="matrix(0.7195611314544164,0,0,0.7195611314544164,278.0007165925136,-17.98902828636041)" fill="#ec1b90"><path xmlns="http://www.w3.org/2000/svg" d="M74.313 0l-28.094 78h8.469l28.094-78h-8.469zm-36.313 11.25l-2.188 1.406-34 22-1.813 1.156v4.25l1.688 1.219 34 24 2.313 1.594v-9.781l-26.844-18.969 26.844-17.375v-9.5zm52 0v9.5l26.844 17.375-26.844 18.969v9.781l2.313-1.594 34-24 1.688-1.219v-4.25l-1.813-1.156-34-22-2.188-1.406z" transform="translate(0 25)"></path></g><g id="SvgjsG3280" featurekey="UxBHKT-0" transform="matrix(3.395709697456935,0,0,3.395709697456935,-6.201245077993785,-14.978548487284677)" fill="#ec1b90"><path d="M1.8262 20 l0 -14.111 l5.1074 0 c4.502 0 6.7285 2.832 6.7285 7.0508 c0 4.2285 -2.2266 7.0605 -6.7285 7.0605 l-5.1074 0 z M4.7559 17.4121 l2.0313 0 c2.5977 0 3.7891 -1.6211 3.7891 -4.4727 s-1.1914 -4.4727 -3.7891 -4.4727 l-2.0313 0 l0 8.9453 z M25.478078125 14.834 l-0.029297 0.67383 l-7.4414 0 c0.11719 1.6699 1.2305 2.4707 2.5684 2.4707 c1.0059 0 1.7871 -0.46875 2.168 -1.3574 l2.5781 0.38086 c-0.66406 2.0313 -2.4707 3.1934 -4.7266 3.1934 c-3.2422 0 -5.3613 -1.9141 -5.3613 -5.2148 s2.1777 -5.2344 5.2734 -5.2344 c2.8418 0 4.9609 1.5723 4.9707 5.0879 z M20.527378125 11.7383 c-1.2793 0 -2.168 0.5957 -2.4414 1.9336 l4.6094 0 c-0.14648 -1.2793 -1.0156 -1.9336 -2.168 -1.9336 z M34.150409375 9.961 l2.9785 0 l-4.2773 10.039 l-2.4414 0 l-4.2285 -10.039 l2.959 0 l2.5 6.8652 z M42.1386375 20.19531 c-2.2559 0 -4.0039 -0.88867 -4.3652 -2.793 l2.3535 -0.66406 c0.30273 1.0742 1.0645 1.4941 2.0117 1.4941 c0.69336 0 1.4453 -0.21484 1.4258 -1.0059 c-0.0097656 -1.0449 -1.5918 -1.1328 -3.1836 -1.6992 c-1.2012 -0.41992 -2.3535 -1.0645 -2.3535 -2.7539 c0 -2.0605 1.709 -3.0078 3.9355 -3.0078 c1.9531 0 3.584 0.74219 3.9746 2.6563 l-2.1777 0.48828 c-0.30273 -0.9375 -0.9668 -1.2695 -1.7871 -1.2695 c-0.74219 0 -1.377 0.26367 -1.377 0.88867 c0 0.79102 1.1621 0.94727 2.4219 1.2891 c1.5527 0.41992 3.252 1.0938 3.252 3.2422 c0 2.3047 -1.9629 3.1348 -4.1309 3.1348 z M54.9511375 20 l-3.2324 -4.2188 l-0.58594 0 l0 4.2188 l-2.8418 0 l0 -15 l2.8418 0 l0 8.8281 l0.52734 0 l3.1543 -3.8672 l3.1836 0 l-3.9551 4.6582 l4.3262 5.3809 l-3.418 0 z M66.455109375 9.961 l2.8125 0 l0 10.039 l-2.666 0 l-0.068359 -1.2109 c-0.70313 0.88867 -1.8164 1.4063 -3.1934 1.4063 c-2.4121 0 -3.7402 -1.2598 -3.7402 -3.4766 l0 -6.7578 l2.8223 0 l0 6.1523 c0 1.3281 0.83008 1.8164 1.8066 1.8164 c1.1621 0 2.2168 -0.58594 2.2266 -2.4316 l0 -5.5371 z M75.91795625 20 c-1.9531 0 -3.0664 -1.1328 -3.0664 -3.1348 l0 -4.7461 l-1.9727 0 l0 -2.1582 l0.63477 0 c1.0645 0 1.6504 -0.41016 1.6504 -1.9141 l0 -1.3281 l2.5391 0 l0 3.2422 l2.0703 0 l0 2.1582 l-2.0703 0 l0 4.4434 c0 0.89844 0.43945 1.2988 1.1621 1.2988 l0.9082 0 l0 2.1387 l-1.8555 0 z"></path></g></svg>